# xmcd
# 
# Track frame offsets:
#     150
#     11420
#     28460
#     42192
#     50867
#     76560
#     88492
#     103597
#     119470
#     129972
#     138990
#     160030
#     176237
#     186330
#     202957
#     213840
#     228735
#     250335
#     262655
#     277740
#     301742
# 
# Disc length: 4246
# 
# Revision: 4
# Processed by: cddbd v1.5.2PL0 Copyright (c) Steve Scherf et al.
# Submitted via: fre:ac v1.0.17
# 
DISCID=1d109415
DTITLE=Thelonious Monk - Solo Monk
DYEAR=1965
DGENRE=Jazz
TTITLE0=Dinah (Take 2)
TTITLE1=I Surrender, Dear
TTITLE2=Sweet And Lovely (Take 2)
TTITLE3=North Of The Sunset
TTITLE4=Ruby, My Dear (Take 3)
TTITLE5=I'm Confessin' (That I Love You)
TTITLE6=I Hadn't Anyone Till You
TTITLE7=Everything Happens To Me (Take 3)
TTITLE8=Monk's Point
TTITLE9=I Should Care
TTITLE10=Ask Me Now (Take 2)
TTITLE11=These Foolish Things (Remind Me Of You)
TTITLE12=Introspection
TTITLE13=Darn That Dream
TTITLE14=Dinah (Take 1)
TTITLE15=Sweet And Lovely (Take 1)
TTITLE16=Ruby, My Dear (Take 1)
TTITLE17=I'm Confessin' (That I Love You) (Take 1)
TTITLE18=I Hadn't Anyone Till You (Take 1)
TTITLE19=Everything Happens To Me (Retake 1)
TTITLE20=Ask Me Now (Take 1)
EXTD=
EXTT0=
EXTT1=
EXTT2=
EXTT3=
EXTT4=
EXTT5=
EXTT6=
EXTT7=
EXTT8=
EXTT9=
EXTT10=
EXTT11=
EXTT12=
EXTT13=
EXTT14=
EXTT15=
EXTT16=
EXTT17=
EXTT18=
EXTT19=
EXTT20=
PLAYORDER=
